<svg width="60" height="74" viewBox="0 0 60 74" fill="none" xmlns="http://www.w3.org/2000/svg">
<path d="M29.5051 0C25.9322 0 22.9356 2.92116 22.9356 6.52965C22.9356 8.07614 23.5119 9.45081 24.4339 10.5964C14.3492 12.8875 6.85763 21.8228 6.85763 32.5337V50.0034H6.28136C2.82373 50.0034 0 52.81 0 56.2466C0 59.6833 2.82373 62.4899 6.28136 62.4899H17.7492V62.7763C17.7492 68.7904 22.7051 73.7163 28.7559 73.7163C34.8068 73.7163 39.7627 68.7904 39.7627 62.7763V62.4899H52.7864C56.2441 62.4899 59.0678 59.6833 59.0678 56.2466C59.0678 52.81 56.1864 49.9461 52.7288 49.9461H52.1525V32.4764C52.1525 21.7655 44.661 12.8302 34.5763 10.5391C35.4983 9.45081 36.0746 8.01887 36.0746 6.47237C36.0746 2.92116 33.1356 0 29.5051 0ZM29.5051 3.03571C31.4644 3.03571 33.0203 4.58221 33.0203 6.52965C33.0203 8.47709 31.4644 9.96631 29.5051 9.96631C27.5458 9.96631 25.9898 8.41981 25.9898 6.47237C26.0475 4.58221 27.5458 3.03571 29.5051 3.03571ZM29.5051 13.002C40.3966 13.002 49.0983 21.6509 49.0983 32.4764V49.9461H9.91187V32.4764C9.91187 21.6509 18.6136 13.002 29.5051 13.002ZM6.28136 52.9818H8.35593H50.5966H52.6712C54.4576 52.9818 55.8983 54.4137 55.8983 56.1894C55.8983 57.965 54.4576 59.3969 52.6712 59.3969H6.28136C4.49492 59.3969 3.05424 58.0222 3.05424 56.1894C3.05424 54.3565 4.49492 52.9818 6.28136 52.9818ZM20.8034 62.4326H36.7085V62.719C36.7085 67.1294 33.1932 70.6233 28.7559 70.6233C24.3186 70.6233 20.8034 67.1294 20.8034 62.719V62.4326Z" fill="white"/>
</svg>
