<svg width="29" height="29" viewBox="0 0 29 29" fill="none" xmlns="http://www.w3.org/2000/svg">
<path d="M22.107 0.114555C22.2799 0.0572776 22.4528 0 22.6833 0C23.2595 0 23.8358 0.400943 24.0663 0.97372C24.3545 1.71833 24.0087 2.63477 23.2019 2.92116C18.5917 4.69677 14.385 7.38881 10.9273 10.8827C7.41209 14.3194 4.70361 18.5007 2.91717 23.0829C2.62904 23.8275 1.707 24.2284 0.957849 23.942C0.208696 23.6557 -0.194694 22.7965 0.0934421 21.9946C1.99514 17.0115 4.99175 12.4865 8.73751 8.7062C12.5409 4.98315 17.0934 2.00472 22.107 0.114555Z" fill="white"/>
<path d="M26.1409 12.3147C26.3138 12.2574 26.5443 12.2001 26.7172 12.2001C27.3511 12.2001 27.9273 12.5438 28.1579 13.1739C28.446 13.9185 28.1002 14.8349 27.2934 15.1213C24.585 16.2096 22.107 17.8706 20.0324 19.9326C17.9578 21.9946 16.2867 24.4575 15.1917 27.1496C15.1917 27.2069 15.1341 27.2069 15.1341 27.2642C14.7884 28.0088 13.8663 28.3524 13.1172 28.0088C12.368 27.6651 12.0223 26.7487 12.368 26.004C13.6358 22.9683 15.5375 20.1617 17.9002 17.8133C20.2629 15.465 23.0867 13.5748 26.1409 12.3147Z" fill="white"/>
</svg>
