<svg width="29" height="29" viewBox="0 0 29 29" fill="none" xmlns="http://www.w3.org/2000/svg">
<path d="M4.0339 1.5465C4.0339 0.744609 4.6678 0 5.53221 0C5.76271 0 5.93559 0.057276 6.10847 0.114553L6.10847 0.114555C11.122 2.00472 15.6746 4.92588 19.478 8.7062C23.2237 12.4865 26.2203 17.0115 28.122 21.9946V22.0519C28.4102 22.8538 28.0068 23.7129 27.2 23.9993C26.3932 24.2857 25.5288 23.8848 25.2407 23.0829C23.5119 18.5007 20.8034 14.3767 17.2881 10.8827C13.8305 7.38881 9.62373 4.69677 5.01356 2.92116C4.43729 2.69205 4.0339 2.17655 4.0339 1.5465Z" fill="white"/>
<path d="M0 13.7466C0 12.8875 0.633903 12.2001 1.49831 12.2001C1.67119 12.2001 1.9017 12.2574 2.07458 12.2574C5.18644 13.5175 8.01017 15.4077 10.3729 17.7561C12.7356 20.1044 14.6373 22.911 15.9051 26.004C16.1932 26.8059 15.8475 27.6651 15.0407 28.0088C14.2339 28.2951 13.3695 27.9515 13.0237 27.1496C11.9288 24.4575 10.2576 21.9946 8.18306 19.9326C6.10848 17.8706 3.63051 16.2096 0.922035 15.1213C0.345764 14.8922 0 14.3194 0 13.7466Z" fill="white"/>
</svg>
